# xmcd
#
# Track frame offsets:
#	150
#	16629
#	32117
#	44031
#	59468
#	73420
#	91049
#	108312
#	126366
#	140808
#	159591
#	173715
#	186141
#	202814
#
# Disc length: 2931 seconds
#
# Revision: 2
# Processed by: cddbd v1.5.2PL0 Copyright (c) Steve Scherf et al.
# Submitted via: audiograbber 1.83.01
#
DISCID=c50b710e
DTITLE=Sherrie Austin - Love In The Real World
DYEAR=1999
DGENRE=Country
TTITLE0=Never Been Kissed
TTITLE1=Good Love Comin' On
TTITLE2=Little Bird
TTITLE3=That's No Way To Break A Heart
TTITLE4=Sarah
TTITLE5=All The Love A Heart Can Hold
TTITLE6=Dreaming Out Loud
TTITLE7=Heart To Beat
TTITLE8=Love In The Real WorldSherrie Austin
TTITLE9=Haert Hold OnSherrie Austin
TTITLE10=Tell Me EverythingSherrie Austin
TTITLE11=Favorite Waste Of Time
TTITLE12=All That Matters
TTITLE13=Wish
EXTD=
EXTT0=
EXTT1=
EXTT2=
EXTT3=
EXTT4=
EXTT5=
EXTT6=
EXTT7=
EXTT8=
EXTT9=
EXTT10=
EXTT11=
EXTT12=
EXTT13=
PLAYORDER=
